/* XPM */
static char *e960344e29b04e5ba379c21b8ba085fcrEbslnwB4TsKGHrj[] = {
/* columns rows colors chars-per-pixel */
"32 32 159 2 ",
"   c #1A0E05",
".  c #1E1106",
"X  c #1E130A",
"o  c #171513",
"O  c #181614",
"+  c #1C1916",
"@  c #1E1C1A",
"#  c #221307",
"$  c #23150A",
"%  c #291709",
"&  c #26190D",
"*  c #2A1B0E",
"=  c #311E0F",
"-  c #261B11",
";  c #2B1E11",
":  c #211E1D",
">  c #2F210F",
",  c #39220F",
"<  c #2E2114",
"1  c #24211E",
"2  c #2A231D",
"3  c #372714",
"4  c #362615",
"5  c #372615",
"6  c #342516",
"7  c #362516",
"8  c #362616",
"9  c #372617",
"0  c #362515",
"q  c #332314",
"w  c #382514",
"e  c #382517",
"r  c #392616",
"t  c #3A2717",
"y  c #392715",
"u  c #392616",
"i  c #3B2813",
"p  c #3A2814",
"a  c #392816",
"s  c #3C2815",
"d  c #3C2817",
"f  c #3C2917",
"g  c #3C2917",
"h  c #302418",
"j  c #312418",
"k  c #332418",
"l  c #332518",
"z  c #332718",
"x  c #322619",
"c  c #332619",
"v  c #342618",
"b  c #352618",
"n  c #352718",
"m  c #342619",
"M  c #352619",
"N  c #342719",
"B  c #352719",
"V  c #362618",
"C  c #362718",
"Z  c #372718",
"A  c #362719",
"S  c #372719",
"D  c #34271A",
"F  c #35271A",
"G  c #34271B",
"H  c #342619",
"J  c #392718",
"K  c #35281A",
"L  c #36281A",
"P  c #37281A",
"I  c #36281B",
"U  c #36291B",
"Y  c #37291B",
"T  c #36291C",
"R  c #37291C",
"E  c #362A1D",
"W  c #372A1D",
"Q  c #372B1D",
"!  c #372B1F",
"~  c #36291C",
"^  c #382818",
"/  c #382819",
"(  c #39291B",
")  c #3D2918",
"_  c #3D2A19",
"`  c #3E2B1A",
"'  c #382A1C",
"]  c #392A1C",
"[  c #382A1D",
"{  c #382B1D",
"}  c #392B1D",
"|  c #392B1E",
" . c #3C2B1C",
".. c #392C1E",
"X. c #3A2C1E",
"o. c #3B2C1E",
"O. c #3A2C1F",
"+. c #3A2D1F",
"@. c #3B2D1F",
"#. c #3C2C1C",
"$. c #3C2D1D",
"%. c #3F2D1E",
"&. c #3E2E1F",
"*. c #3E2F1F",
"=. c #3F2F1F",
"-. c #3C2A1B",
";. c #252221",
":. c #292624",
">. c #2F2C2C",
",. c #362B20",
"<. c #372C20",
"1. c #3B2D20",
"2. c #3A2E20",
"3. c #3B2E20",
"4. c #3F2F20",
"5. c #3C2F22",
"6. c #3D2F21",
"7. c #3D2E21",
"8. c #3D3022",
"9. c #3E3023",
"0. c #3E3124",
"q. c #3F3224",
"w. c #3E3123",
"e. c #32302F",
"r. c #343131",
"t. c #412A17",
"y. c #422E1D",
"u. c #402F1F",
"i. c #422D1B",
"p. c #43301F",
"a. c #46311E",
"s. c #4A321E",
"d. c #412F20",
"f. c #443121",
"g. c #453220",
"h. c #443222",
"j. c #403325",
"k. c #403326",
"l. c #423427",
"z. c #463424",
"x. c #473627",
"c. c #433223",
"v. c #493321",
"b. c #483524",
"n. c #493625",
"m. c #483627",
"M. c #4D3725",
"N. c #4B3422",
"B. c #4B3927",
"V. c #4E3826",
"C. c #443629",
"Z. c #46382C",
"A. c #4F3A28",
"S. c #4B3B2C",
"D. c #513625",
"F. c #533926",
"G. c #543A29",
"H. c #5A3D2C",
"J. c #624231",
/* pixels */
"% 0 s i s s 0 r 5 = 0 0 5 5 q ; * j q g 5 * q q q 0 5 5 5 r g q ",
". < N < * q ; * q 5 5 % q q * % * ; ( ( * * 5 q * N < * ; 5 5 * ",
"& < X   ; $   $ < & $ * * # q ; < $.; % * & . % * $ . * & . N < ",
"* < % & N < $ * ! ; * ! ; % $.0 = $.* & j q $ ; j $ & ! < $ P < ",
"* ; < ! ! ! ' ! 8.1.' o.o.q q 0 = q N ' ' 5.' N N P ' o.! < N ; ",
"r o.< - ; ; ; ; < - ; < ; % $.y.0 $.< - q ; * ; ; ; ; < ; & o.N ",
"r P $ X j ; # * q % % N - % m.) 5 z.* . j ; . ; q # $ q * . ' P ",
"* ; < j N < * < ' < q P < *  .r 5 5.q < ! N < q q ; q ' q * q ; ",
"q $.; * P < & ; ,.; * ' < & N N 5 5 < & j < & < N * * ' < & ' N ",
") $.* & q ; & q <.* % 5 ; * h.5 0 h.q % q < % < ! * * N q $ P N ",
"q q o.j.q.8.1.j.l.( y.m.B.m.h.) r p.v.M.A.z.N 1.q.1.o.1.1.j P * ",
"r y.< < < ; * ; ; * ) s ) ) r y.q N g s i.h.q < q < q q < & P ; ",
"r f.% X j ; # & q % J * 2 2 :.2 : ;.2 2 * d % & q % $ q ; . P 5 ",
"( d.q * 5 q * * 5 % $.5 2 ;.1 @ @ @ : 1 q a.= q N * * N < * p.) ",
"q ( A.N.G.M.N.N.m.) y.r 1 @ :.;.@ ;.+ : q i.v.M.G.G.D.D.M.N.a.= ",
") N.i.s.F.F.F.D.s.M.M.) 1 : r.>.1 :.;.: N N.N.s.M.N.v.v.a.i.i.J ",
"r s.s.g y.a.i.v.v.M.a.N 1 : r.>.:.e.:.: 2 y.a.i.h.a.a.a.) i.y.( ",
"; ( $.j * N N * J v.t.& 1 1 ;.: : :.1 1 - r a.r ; ' ( q ( h. .* ",
"P $.& X ; -   $ < % y.N 1 :.@ @ @ @ :.:.q a.* & ; X X ; ; & $.g ",
"g N.* - 5.q $ ; ! % y.$.+ O o o o + o + ( v.= < ! * * P < & ` s ",
"5 ( q o.8.o.P o.q.N F.G.N * & $ X ; ; q f.m.) $.5.' ' 5.P < ( r ",
"= q 8.Z.j.C.C.C.l.5.N 5 y.N.h.w = s.a.i.q ! 1.j.l.l.j.C.l.! ) * ",
"5 $.& $ * & $ & * X   X $ $ ( r = $.* . X X . & < & % < * X $.5 ",
") f.; * P ; & < P * & G j & m.t., a.; - ! j & < ' ; * ' q & f.) ",
") h.5.l.Z.l.C.j.S.C.j.C.l.P f.t.w h.J C.Z.S.C.S.S.Z.l.C.Z.5.h.( ",
"% ) q h ' N q ; ! N q j j < q 5 0 q 5 N ' P N ' ' ' N q G q ` * ",
") h.* $ < & . $ q % # ; < $ $.5 0 y.* $ q ; # ; q $ # < ; # y.5 ",
") y.= & P q & & q ; * N P * f.( 0 $.; ; ' 5 * 5 ' * * N j * y.q ",
"* t.G.s.m.m.) 5 i.D.H.J.F.N.r q 5 q i.M.G.H.H.G.i.i.F.H.H.F.t.$ ",
") N.F.i.v.a.w r t.t.F.G.F.s.N.g 0 ) s N.G.G.G.N.a.i.N.v.a.i.r * ",
"< r g > q q = = = = * 5 r i.` < * q ( ) 5 0 ) r 0 q 5 q * 5 q % ",
". % 0 * . * * # % % & $ = q * % $ # * = # & q 0 % * * & * 0 * . "
};
