/* XPM */
static char *ce274499a8904ed682c7036345b67936YuscJg5VZMK4tN8E[] = {
/* columns rows colors chars-per-pixel */
"32 32 14 1 ",
"  c None",
". c #010101",
"X c #191919",
"o c #1E3B7D",
"O c #DDB710",
"+ c #F4CF0F",
"@ c #F5DB61",
"# c #2347B1",
"$ c #4763AE",
"% c #4472C7",
"& c #919796",
"* c #A7A7A7",
"= c #BDBBBC",
"- c white",
/* pixels */
"                                ",
"                 .              ",
"              . .               ",
"               .                ",
"            .......             ",
"          ..@@@.@@@..           ",
"         .@@++++@@@@@.          ",
"        .@+&**=++**==+.         ",
"        ..&&***=&***==.         ",
"        ..&&---*&---*=.         ",
"        ..&&--.*&--.*=.         ",
"        .O&&---*&---**.         ",
"        .O&&&&**&&&**&.         ",
"        .O+&&&&++&&&&@.         ",
"        .O++++++++++@@.         ",
"        .O++++++++++@@.         ",
"        .O++++++++++@@.         ",
"        .O+++O+++++@@@.         ",
"        .+++++OOO++@@@.         ",
"        .#++++++++@@@%.         ",
"        .+##++++++@#%@.         ",
"       .+++#########++@.        ",
"       .+.+##$%%%%##+.@.        ",
"       .+.o##$###%###.@.        ",
"       .+.o##$###%###.@.        ",
"       .+.oo##$%%####.+.        ",
"       .X.ooo#######o.X.        ",
"      .XX..ooooooooo..XX.       ",
"      .XX. ......... .XX.       ",
"       ..  .##. .##.  ..        ",
"          .XXX. .XXX.           ",
"          ..... .....           "
};
