/* XPM */
static char *_8cd9915a652423bbe3a8a350ef3281657ZXiFl3Fuhhsq91[] = {
/* columns rows colors chars-per-pixel */
"32 32 5 1 ",
"  c None",
". c #493C2B",
"X c #732930",
"o c #BE2633",
"O c #E06F8B",
/* pixels */
"                                ",
"                                ",
"                                ",
"                                ",
"                                ",
"           ..........           ",
"        ...XXXXXXXXXX...        ",
"      ..XXXXXXXXXXXXXXXX..      ",
"     .XXXXXXXXXXXXXXXXXXXX.     ",
"    .XXXXXXXXXXXXXXXXXXXXXX.    ",
"   .XXXXXXXXXXXXXXXXXXXXXXXX.   ",
"  ..XXXXXX............XXXXXX..  ",
"  .XXXX...oooooooooooo...XXXX.  ",
"  .XX..oooOXOXOXXOXOXOooo..XX.  ",
"  .X.ooOXOXOXOXOOXOXOXOXOoo.X.  ",
"  ..oXOXOXOXOXOXXOXOXOXOXOXo..  ",
"  .oXOXOXOXOXOXOOXOXOXOXOXOXo.  ",
"  .oOXOXOXOOOOOOOOOOOOXOXOXOo.  ",
"  .oXOXOOOOXXXXXXXXXOOOOOXOXo.  ",
"   .oOOOOOOOXXXooXXOOOOOOOOo.   ",
"    .ooOOOOOOXXooXOOOOOOOoo.    ",
"     ..oooOOOXXooXOOOOooo..     ",
"       ...oooXXooXoooo...       ",
"          ...XXooX....          ",
"             XXooX              ",
"             XXooX              ",
"             XooOX              ",
"            XXoOOX              ",
"            XXoOOOX             ",
"           XXoOOOOOX            ",
"          XXoOOOOOOX            ",
"         XXoOOOOOOOOX           "
};
