/* XPM */
static char *_d179babf5f448278bfc3d1493e5dc3dB4mO4voEh6hK5Cxp[] = {
/* columns rows colors chars-per-pixel */
"32 32 6 1 ",
"  c None",
". c #241400",
"X c #004000",
"o c #008000",
"O c #00A530",
"+ c #ACE300",
/* pixels */
"                                ",
"                                ",
"                                ",
"                                ",
"                                ",
"           ..........           ",
"        ...OOOOOOOOOO...        ",
"      ..OOOOOOOOOOOOOOOO..      ",
"     .OOOOOOOOOOOOOOOOOOOO.     ",
"    .OOOOOOOOOOOOOOOOOOOOOO.    ",
"   .OOOOOOOOOOOOOOOOOOOOOOOO.   ",
"  ..OOOOOO............OOOOOO..  ",
"  .OOOO...oooooooooooo...OOOO.  ",
"  .OO..ooo+X+X+XX+X+X+ooo..OO.  ",
"  .O.oo+X+X+X+X++X+X+X+X+oo.O.  ",
"  ..oX+X+X+X+X+XX+X+X+X+X+Xo..  ",
"  .oX+X+X+X+X+X++X+X+X+X+X+Xo.  ",
"  .o+X+X+X++++++++++++X+X+X+o.  ",
"  .oX+X++++XXXXXXXXX+++++X+Xo.  ",
"   .o+++++++XXXooXX++++++++o.   ",
"    .oo++++++XXooX+++++++oo.    ",
"     ..ooo+++XXooX++++ooo..     ",
"       ...oooXXooXoooo...       ",
"          ...XXooX....          ",
"             XXooX              ",
"             XXooX              ",
"             Xoo+X              ",
"            XXo++X              ",
"            XXo+++X             ",
"           XXo+++++X            ",
"          XXo++++++X            ",
"         XXo++++++++X           "
};
