/* XPM */
static char *_701e4edd06f4054c2cb0d2835564347KAUX8wual8jcoqyX[] = {
/* columns rows colors chars-per-pixel */
"32 32 238 2 ",
"   c #181816",
".  c #1D0A1D",
"X  c #2B0602",
"o  c #360305",
"O  c #221518",
"+  c #381814",
"@  c #300F11",
"#  c #30281B",
"$  c #3A1C24",
"%  c #3C003D",
"&  c #361336",
"*  c #262826",
"=  c #383835",
"-  c #2A383B",
";  c #4B0502",
":  c #5C0202",
">  c #580306",
",  c #441719",
"<  c #480815",
"1  c #640104",
"2  c #7B0101",
"3  c #760107",
"4  c #771616",
"5  c #7F120D",
"6  c #46023A",
"7  c #50043D",
"8  c #521B2A",
"9  c #741F22",
"0  c #493836",
"q  c #4D3632",
"w  c #662523",
"e  c #6D3634",
"r  c #324339",
"t  c #4D4034",
"y  c #3C0441",
"u  c #3C0941",
"i  c #3A1642",
"p  c #3A3847",
"a  c #3F2443",
"s  c #440145",
"d  c #4B0144",
"f  c #44024C",
"g  c #4C024C",
"h  c #4A0B4D",
"j  c #470A46",
"k  c #53014D",
"l  c #560449",
"z  c #4A1449",
"x  c #55164D",
"c  c #4C0253",
"v  c #4C0B54",
"b  c #4D035A",
"n  c #480757",
"m  c #530254",
"M  c #5B0155",
"N  c #530D52",
"B  c #530158",
"V  c #5B0758",
"C  c #481454",
"Z  c #561856",
"A  c #61035A",
"S  c #60004D",
"D  c #462746",
"F  c #55254B",
"G  c #493743",
"H  c #533944",
"J  c #4D2657",
"K  c #5C225B",
"L  c #552657",
"P  c #553756",
"I  c #493953",
"U  c #62245B",
"Y  c #67345F",
"T  c #4F0564",
"R  c #5A0166",
"E  c #5A1564",
"W  c #5B1D72",
"Q  c #630164",
"!  c #6B096D",
"~  c #671B69",
"^  c #730378",
"/  c #6B0278",
"(  c #582764",
")  c #593467",
"_  c #502172",
"`  c #642964",
"'  c #68386B",
"]  c #723469",
"[  c #763A73",
"{  c #703073",
"}  c #374648",
"|  c #3D5650",
" . c #45464A",
".. c #584A56",
"X. c #495152",
"o. c #5A5459",
"O. c #4C4D49",
"+. c #7C534D",
"@. c #76465A",
"#. c #7B5659",
"$. c #72474B",
"%. c #5A645C",
"&. c #79635E",
"*. c #666052",
"=. c #5B5761",
"-. c #694966",
";. c #714465",
":. c #6A5869",
">. c #764B78",
",. c #6C5675",
"<. c #775979",
"1. c #74556D",
"2. c #646869",
"3. c #7A6366",
"4. c #796979",
"5. c #797777",
"6. c #6F6B7A",
"7. c #890205",
"8. c #8D0C0D",
"9. c #B90506",
"0. c #B9171A",
"q. c #AF0F11",
"w. c #B82406",
"e. c #9C1422",
"r. c #B81F22",
"t. c #C80F17",
"y. c #C71517",
"u. c #C81413",
"i. c #E11A07",
"p. c #C1092B",
"a. c #895517",
"s. c #9D551A",
"d. c #AD530E",
"f. c #A76316",
"g. c #8A5626",
"h. c #A56839",
"j. c #C76418",
"k. c #803C63",
"l. c #834B4D",
"z. c #86544C",
"x. c #854A56",
"c. c #845252",
"v. c #89545A",
"b. c #9D5348",
"n. c #A95A57",
"m. c #A74A52",
"M. c #896A5D",
"N. c #98665B",
"B. c #9A7558",
"V. c #A67D56",
"C. c #B16C4A",
"Z. c #885A63",
"A. c #955E66",
"S. c #874F78",
"D. c #B45B61",
"F. c #886968",
"G. c #966C6C",
"H. c #887163",
"J. c #856875",
"K. c #877A77",
"L. c #92767A",
"P. c #9B7B7C",
"I. c #957675",
"U. c #956F6E",
"Y. c #A76665",
"T. c #A97478",
"R. c #AF7070",
"E. c #C06258",
"W. c #D16D76",
"Q. c #7E864A",
"!. c #AFA800",
"~. c #A28F17",
"^. c #A39C44",
"/. c #87877B",
"(. c #958579",
"). c #A8897D",
"_. c #B08074",
"`. c #D49B66",
"'. c #7A0385",
"]. c #773986",
"[. c #785C82",
"{. c #787785",
"}. c #7C7692",
"|. c #943A80",
" X c #8D5784",
".X c #85678B",
"XX c #89798B",
"oX c #977786",
"OX c #847792",
"+X c #9D7E91",
"@X c #AF7985",
"#X c #798C8A",
"$X c #888786",
"%X c #978585",
"&X c #888A93",
"*X c #9B8A94",
"=X c #8B9796",
"-X c #9C969A",
";X c #9C9C9A",
":X c #969896",
">X c #8D9888",
",X c #A5958A",
"<X c #BA9689",
"1X c #A68C97",
"2X c #A5979B",
"3X c #B29A9A",
"4X c #AA8B88",
"5X c #9AA499",
"6X c #8BA393",
"7X c #A7AA99",
"8X c #B4A799",
"9X c #B0AC8D",
"0X c #9898A3",
"qX c #978FA6",
"wX c #A89CA6",
"eX c #B69DA3",
"rX c #97A3A7",
"tX c #A9A7A8",
"yX c #B6A7A6",
"uX c #B5B2A7",
"iX c #A7ABB6",
"pX c #B9AEB8",
"aX c #ABB6B6",
"sX c #B7B8B9",
"dX c #ACB5AD",
"fX c #CB8586",
"gX c #C1B7B5",
"hX c #C5B2AB",
"jX c #C6AC9D",
"kX c #B7C5BB",
"lX c #B6C9BE",
"zX c #C0C6B8",
"xX c #B9BDC5",
"cX c #C6B8C4",
"vX c #BAC5C4",
"bX c #B8C8C5",
"nX c #C6C2CE",
"mX c #C6D2CC",
/* pixels */
"p 0 t 0 q 0  .0 0 0 0 0 0 H O.G H 0  .p t q ..q 0 q 0 = t G = D ",
"f.i.u.0.0.t.w =.y.q.0.q.0.t.q.0.q.y.w O.r.u.u.t.q.y.9.0.0.p.w.a.",
"!.Q.qX:X,X:X;X:X:X;X-X:X;X:X;X:X:X=X;X:X,X0X1X6X=X1X;X-X=X/.^.~.",
"4 $.G.x.o.v.z.v.c.+.+.+.c.c.c.+.#.l.z.c.z.v.c.c.F.m.D.3.O.$X$.8 ",
"4 A.Z.).#.L.tX&XtXyX3XyXwXwXuXyX8XpXtXwX5X3XyXwX[.8X).:.(.D.e X ",
"q $XK.$XkX&X=XF >.xXmXlXkXpXXXXX.XB.`.hXbXkX2X] A rXtXbX;X*.2.O ",
"9.R.P.J.dX1Xo.P d g >.XXdXcXx k T 9 C.<XXX].g 7 ..4.$XbX{.F.3.3 ",
"7.N.@X4X&X~ V =. .z M M z *X.Xu f  X0XE M A C  ...Q ~ ;XJ.N.M.: ",
"2 Y.I.yX0Xz Q R L z & f ~ ;X-.b g ,.0Xx g & 8 D c ^ ` &XU.G.F.: ",
": F.T.gX5.o.I Q Q ! h g F /.1.m c ;.$XL c m A b ! ] %.2.(.P.3.; ",
"= 5.U.eXA N G H ( ! M M f J E M h K K % g m x -.4...i v *XR.6.O ",
"e.W.).eX~ T y 6 y ! M f b c f C z h f d j V ! V f % % N %XB.F.o ",
"8.D.P.*X,.x C u j m V c g N Y ' { ` h m M Q ^ M c j 8 :.*XR.F.X ",
"8.n.(.k.J ) ` U D % R ! M N [ ^ '.[ N R ^ M C D & a J W |.<XH.@ ",
"4 n.F.] c n M c g v n f N N { / ^ ] N R B k v s f f M T S.fXM.X ",
"q {.L.#.d g d Z K x l Z Z n ,.-.-.:.h E x z C K z 6 B M #._.4.  ",
"9.Y.I.2XOX>.;.P Z j F W d f N ' ' v s 7 _ F j v P -.>.OX,XG.&.3 ",
"7.Y.T.4X4.) h c f J Z g ' E f B m f E ' k K J d b N ' [.K.3.x.1 ",
"7.N.L.1XZ M f S K ~ c >.@.c v g j N c -.>.m ` L M M m x L.&.#.1 ",
"> F.T.yX{.d k Z K l g ( d B k g m g v 6 ( h 7 ( Z l g OX9XY.&.; ",
"* /.T.jXlX4.<.:.c y }.~ b k v C N v k b U OXd n ,.<.4.kX,XT.4.O ",
"e.W.T.yXpXsXuXC.;.+XuXv.y d W k l _ d s Z.uX+XY n.7XbXvXtX@XJ.o ",
"5 n.I.wXsXsX<Xg.f.j.d.a.J.oX) B c ) oXJ.a.d.j.f.s.9XcXnXyXfXM.o ",
"8.E.H.2XtXsX4Xg.f.s.V.h.dX' s c b d [ uXh.B.s.d.g.).sXsX3XP.F.X ",
"4 n.U.2XaXaX1X:XV.H.iX,.x f k g B g c N <.iXB.V.5X1XdXsX2XP.Z.X ",
"= $XI.(.zXgXkXxX8X3X-.d y F  Xf f >.F s f o.,X8XxXsXgXlX%XG.5.  ",
"q.b.7Xl.v.$XtXpXvXsXuX1XJ.wXU f k ) wXS.*XuXxXnXuX7X(.A.l.7X+.1 ",
"7.; Z.rX-XT.v.l.H.wXaXbXbXsX,.d d ,.kXvXbXkX3XF.#.v.@X*X:X3.> 1 ",
"7.2 > w #./.;X7XP.c.c.U.-XiXmX<.4.mXtX-XU.c.c.oX8X5X5.$.< > : 7.",
"7.7.2 2 3 : ; e M.>X2XI.N.+.c.%X*X+.v.Y.K.1X%X4.O.> > : 2 7.2 2 ",
"+ + , , , + $ o @   p 2.#XqX$XM.A.(.,X{...# X . $ $ + + , , + , ",
"X.X.}  .X.X.|  . .r # * O # } 6.6.} *     * - = }  ...X.X.}  .X."
};
