/* XPM */
static char *_3622ad0ecdc42a088bf9711c0d472e9pyP21lDNdYoX80DS[] = {
/* columns rows colors chars-per-pixel */
"40 40 228 2 ",
"   c #010202",
".  c #0B0003",
"X  c #000B03",
"o  c #02020B",
"O  c #0B020B",
"+  c #010B0B",
"@  c #0B0C0C",
"#  c #080B00",
"$  c #130002",
"%  c #1B0003",
"&  c #140905",
"*  c #13010B",
"=  c #1B010C",
"-  c #140B0B",
";  c #1B0C08",
":  c #001303",
">  c #001B03",
",  c #00130C",
"<  c #011B0C",
"1  c #0A100E",
"2  c #10130C",
"3  c #010313",
"4  c #0E0211",
"5  c #010B13",
"6  c #0B0A11",
"7  c #00031B",
"8  c #0B051B",
"9  c #030B1B",
"0  c #140212",
"q  c #1C0312",
"w  c #120C14",
"e  c #12021D",
"r  c #130A19",
"t  c #011313",
"y  c #0B1314",
"u  c #001A14",
"i  c #01131B",
"p  c #011C1C",
"a  c #0C1719",
"s  c #14121A",
"d  c #1D141A",
"f  c #131B1D",
"g  c #161718",
"h  c #250005",
"j  c #28030C",
"k  c #240718",
"l  c #211016",
"z  c #28111D",
"x  c #002405",
"c  c #00250C",
"v  c #002802",
"b  c #002115",
"n  c #01231E",
"m  c #00281C",
"M  c #00311D",
"N  c #122A1D",
"B  c #000322",
"V  c #010B23",
"C  c #000A2A",
"Z  c #0C0C26",
"A  c #001423",
"S  c #001C24",
"D  c #00152C",
"F  c #091428",
"G  c #181823",
"H  c #001E35",
"J  c #001130",
"K  c #250A23",
"L  c #201124",
"P  c #012524",
"I  c #002B24",
"U  c #00222B",
"Y  c #002C2A",
"T  c #0B2626",
"R  c #1A2626",
"E  c #043326",
"W  c #003826",
"Q  c #052935",
"!  c #003533",
"~  c #00313A",
"^  c #043D38",
"/  c #143C3D",
"(  c #183A36",
")  c #2D282F",
"_  c #212A31",
"`  c #28373C",
"'  c #00413C",
"]  c #04473A",
"[  c #1A453C",
"{  c #005C3F",
"}  c #002E45",
"|  c #003D4A",
" . c #003740",
".. c #153B47",
"X. c #004A44",
"o. c #00454D",
"O. c #1D464B",
"+. c #164B45",
"@. c #005444",
"#. c #005B48",
"$. c #004656",
"%. c #035957",
"&. c #195351",
"*. c #124852",
"=. c #255154",
"-. c #295B58",
";. c #285049",
":. c #11654D",
">. c #036256",
",. c #05655C",
"<. c #1B635F",
"1. c #00735B",
"2. c #035968",
"3. c #00656D",
"4. c #186466",
"5. c #007267",
"6. c #00776C",
"7. c #1E7F6E",
"8. c #03647D",
"9. c #006375",
"0. c #037374",
"q. c #077F7E",
"w. c #266061",
"e. c #316F64",
"r. c #347E6F",
"t. c #397B73",
"y. c #287065",
"u. c #44504E",
"i. c #4A5956",
"p. c #486365",
"a. c #526B72",
"s. c #457674",
"d. c #517877",
"f. c #407968",
"g. c #068A78",
"h. c #198675",
"j. c #2E8775",
"k. c #44867B",
"l. c #44957B",
"z. c #439A77",
"x. c #0E7180",
"c. c #067684",
"v. c #2F7992",
"b. c #236B83",
"n. c #5C7D82",
"m. c #07818E",
"M. c #1E8782",
"N. c #1A9685",
"B. c #089B92",
"V. c #228886",
"C. c #378985",
"Z. c #279886",
"A. c #249997",
"S. c #08A68A",
"D. c #00B39D",
"F. c #17A88F",
"G. c #35A08E",
"H. c #25A79C",
"J. c #02A7A8",
"K. c #17ADA5",
"L. c #00BAB2",
"P. c #15BABA",
"I. c #17B4AB",
"U. c #26AEAC",
"Y. c #2EB2A4",
"T. c #2AAEB2",
"R. c #23B4B5",
"E. c #38AAA2",
"W. c #419281",
"Q. c #469E9F",
"!. c #55978B",
"~. c #619899",
"^. c #719A9C",
"/. c #44A48C",
"(. c #52A68F",
"). c #42AB98",
"_. c #53B69B",
"`. c #65AB9B",
"'. c #46AEAD",
"]. c #44B7AE",
"[. c #53B5B9",
"{. c #7AA0A3",
"}. c #6AB3A6",
"|. c #79B3AC",
" X c #6DB3AE",
".X c #00C19C",
"XX c #02C4A9",
"oX c #00D1AC",
"OX c #08CAB5",
"+X c #19C7BB",
"@X c #1ACCAA",
"#X c #28C8AD",
"$X c #39CBBB",
"%X c #25D4BE",
"&X c #3CDBBB",
"*X c #45C69F",
"=X c #5FC7B0",
"-X c #53D8BD",
";X c #6AC6B4",
":X c #73C3B6",
">X c #0FA6C3",
",X c #02B3C7",
"<X c #13B5C4",
"1X c #25BCC7",
"2X c #06C6CD",
"3X c #16CFC1",
"4X c #0BDCCD",
"5X c #09DEC2",
"6X c #16D7C8",
"7X c #03CEDF",
"8X c #1CD9D3",
"9X c #28CAC8",
"0X c #26CBD1",
"qX c #2CF3DE",
"wX c #30E7CD",
"eX c #12D0E6",
"rX c #2CDEE8",
"tX c #1DFEE0",
"yX c #0AE6FF",
"uX c #0EF8FF",
"iX c #30E2EC",
"pX c #15ECCD",
"aX c #42E7E3",
"sX c #899D9C",
"dX c #81AAAE",
"fX c #82A9B0",
"gX c #9DBBBD",
"hX c #83C3C2",
/* pixels */
"h k + p ,.Y 5 p.( t X X n / ..S t p :X< : [   $ $ . # :     . .                 ",
"  o u |.U S p +.s . X X   r i 5 t =.+ G O . d     X X X X , X X X               ",
"c : k.+ 3 3 Y `.  . X X $ % . + u >.u =.i o     f + X + t o O K .         @ #   ",
"v l.u o 3 V 5 ^.X   & & . . .   s.C.).' , + O k o P >.N.Z.*.e q .         # o   ",
"l.u G 4 8 A P ~.+   . #     X O O 8 a + o o G 3 t h.#X.XXX%Xq.i + + @ o         ",
"u o 3 F V V g.N.9 *   X X   X   o o . = z + + < G.Z.5.^ %.R.+X5.u + + +     + R ",
"o 3 i i S ,.XX$XZ =   X X       : X   .   , > h.).X.9 B D b.R.B.! + o + X X R u.",
"4 9 U V.wXOXqX5.V 0 * O X X $ % % % j $   X W W.y.S 7 V D x.9XK.<.P X + + o R i.",
"].M.X.n ^ w.O.5 + o o       . .     .   , > { -X,.U 7 B } A.pXoXZ.+     u : j._.",
"i i 5 5 + i 5 o o o             o 5 . O 9 5 ' E.H.%.| 2.m.P.4XOXu u w .   + m < ",
"O O 4 * . . . $ . . .       X     3 O 4 e 7 D 2.U.P.L.L.2XrX<X9.5 o   * d @     ",
"q * * = * $ . . . . .             O   O O 3 3 U 3.I.6X4X8X1X8.C 9 4 w   O   . . ",
"1               . .           . $ $     X X o + u ' 6.H.A.$.B 7 o   R o o o a s ",
"X X X X X     X         . . . . $ .   X X X       X E [ Y o o 0 G     u X b : : ",
"  X + X                       .           . . . . @ f X     - .   O . o m (.j./.",
". . . . . @ O               o o o o o q % % = = w   X , X   - . O . = - E c v *X",
"3 9 3 5 5 +   +         . . . .     X 1 h %     $ $ X X   $     o o , P + . = $ ",
"5 U fXn.+ o +                     @ - . . - l .     6   o   6 w   p d.+ o ) w . ",
"hXt ! -.t X o y           X o   #       q = o p     u , +   o o o T P + p o o o ",
", ! s.p o G     O . . .     o X .     f $ . ( X o _ !.}.p.+ + + i {.p ^ p Y + gX",
"t ( , o 5 O O z * * * * . . .       @     + o Q -.Y t +.( p u o 5 O./ u , , |.u ",
"  f   6 @   6 o o o   O .   . . #   +   + 5 + ~.i i n t.p o o o o + p + u r.< < ",
". .   + o o p t p t + o   O . . . 2 X T . o }.I 7 9 u j.o     y + o   + m W M :.",
"$ . @   + n ^ k.t.&.I + X +         X o ` a.i i 5 S t dXp o . .     @ o f.`.l.x ",
"+     X x S.0X,X2X9X4., > < X X X X X > z.x : o + + E /., u t             o o o ",
"o f   u Z.F.3.$.2.T.Y.@.+   o + N X . l 6   O 3 + Y 7.}.5 O o             o o o ",
". 5 5 o.[.%.7 3 5 h.%XB.~ 7 O O . O T d.+ 8 q K 5 @.S.F.u o 0 = .             o ",
"h o X.R.v.B e   u >.OX3Xx.H o   i 5 %.4.9 A ..C.#XwX&Xh.S o + X                 ",
"j + >.aX8.C F 5 ] g.5X4Xc.H o . * 9 N.@X$XV.~ S ' %.@.< + + y o                 ",
"  X Y ].K.0.o.| 0.9XtXD. .3 o o q r , < u i 5 S + p k h h % .                   ",
"X t t -.#X3XJ.>X,XiX+X#.+     . h h X c ,   . % $ = = -     $ % .               ",
"o     X 1.J.7XyXuXeX2.5 : X . . $   X   % % l . @     X > >   #                 ",
"$ .   y 5 ~ V.A.'.S 5 o * $ $ . @ o * = .     <   .     X o $ $ .         o o o ",
"X X o o o 5 O.O.5 5 o * -   : : , + I X y w . . . .   .   .               o o o ",
"+ t o w 6 o y X   d $ $ .   X m M ;X#._.X   z $ .   . . $ . X X                 ",
"O 0 $ $ -   X : :   ; $ % *   o n u < }.b +         . . . .   X                 ",
"O q $ $ .   : : :   - . = O R 5 s O O s + + , P o           . . .               ",
"X ,   - . .       O . .   X e.u . j j 0 + m ;Xr.+ o o   o   . $ .               ",
"X X   @   o S i 5 3 3 9 o [ M : + O 5 + |.Y t &.+ o O O                         ",
"; . .   o ~ Q.[.M.A i 3 5 sXX ;., : > =X< u ^.5 5 o O * $   X X                 "
};
